<svg width="45" height="45" viewBox="0 0 45 45" fill="none" xmlns="http://www.w3.org/2000/svg">
<mask id="mask0_895_90" style="mask-type:luminance" maskUnits="userSpaceOnUse" x="0" y="0" width="45" height="45">
<path d="M0 0H45V45H0V0Z" fill="white"/>
</mask>
<g mask="url(#mask0_895_90)">
<path d="M22.4895 -0.010498C10.0833 -0.010498 -0.010498 10.078 -0.010498 22.4843C-0.010498 34.8853 10.0833 44.9791 22.4895 44.9791C34.8905 44.9791 44.9843 34.8853 44.9843 22.4843C44.9843 10.078 34.8905 -0.010498 22.4895 -0.010498ZM22.4895 42.4583C11.4739 42.4583 2.51034 33.4947 2.51034 22.4843C2.51034 11.4687 11.4739 2.51034 22.4895 2.51034C33.4999 2.51034 42.4635 11.4687 42.4635 22.4843C42.4635 33.4947 33.4999 42.4583 22.4895 42.4583Z" fill="black"/>
<path d="M32.9688 12.0051C32.474 11.5155 31.6772 11.5155 31.1824 12.0051L22.4897 20.6978L13.7917 12.0051C13.3022 11.5103 12.5053 11.5103 12.0105 12.0051C11.5209 12.4947 11.5209 13.2916 12.0105 13.7864L20.7084 22.4843L12.0105 31.177C11.5209 31.6718 11.5209 32.4687 12.0105 32.9583C12.2605 33.203 12.5834 33.328 12.9011 33.328C13.224 33.328 13.547 33.203 13.7917 32.9583L22.4897 24.2655L31.1824 32.9583C31.4324 33.203 31.7553 33.328 32.073 33.328C32.3959 33.328 32.7188 33.203 32.9688 32.9583C33.4584 32.4687 33.4584 31.6718 32.9688 31.177L24.2709 22.4843L32.9688 13.7864C33.4584 13.2968 33.4584 12.4999 32.9688 12.0051Z" fill="black"/>
</g>
</svg>
